<svg width="28" height="30" viewBox="0 0 28 30" fill="none" xmlns="http://www.w3.org/2000/svg">
<path d="M6.49999 2.49999H21.5C22.25 2.49999 22.75 2.00001 22.75 1.25001C22.75 0.50001 22.25 0 21.5 0H6.49999C5.74999 0 5.24998 0.50001 5.24998 1.25001C5.24998 2.00001 5.74999 2.49999 6.49999 2.49999ZM25.25 9.99999H2.74999C1.24999 9.99999 0.25 11 0.25 12.5V27.5C0.25 29 1.24999 30 2.74999 30H25.25C26.75 30 27.75 29 27.75 27.5V12.5C27.75 11 26.75 9.99999 25.25 9.99999ZM25.25 27.5H2.74999V12.5H25.25V27.5ZM4 7.5H24C24.75 7.5 25.25 6.99999 25.25 6.24999C25.25 5.49999 24.75 5.00001 24 5.00001H4C3.25 5.00001 2.74999 5.49999 2.74999 6.24999C2.74999 6.99999 3.25 7.5 4 7.5Z" fill="#C43959"/>
</svg>
