<svg width="15" height="15" viewBox="0 0 15 15" fill="none" xmlns="http://www.w3.org/2000/svg">
<line x1="0.5" y1="1" x2="0.499999" y2="15" stroke="#C43959"/>
<line y1="14.5" x2="14" y2="14.5" stroke="#C43959"/>
<line x1="13.5" y1="10" x2="13.5" y2="15" stroke="#C43959"/>
<line y1="1.5" x2="5" y2="1.5" stroke="#C43959"/>
<path d="M14.1625 1.4375C14.1625 1.10613 13.8939 0.8375 13.5625 0.837501L8.1625 0.8375C7.83113 0.8375 7.5625 1.10613 7.5625 1.4375C7.5625 1.76887 7.83113 2.0375 8.1625 2.0375L12.9625 2.0375L12.9625 6.8375C12.9625 7.16887 13.2311 7.4375 13.5625 7.4375C13.8939 7.4375 14.1625 7.16887 14.1625 6.8375L14.1625 1.4375ZM7.42426 8.42426L13.9868 1.86176L13.1382 1.01324L6.57574 7.57574L7.42426 8.42426Z" fill="#C43959"/>
</svg>
