<svg width="64" height="64" xmlns="http://www.w3.org/2000/svg" fill="none">
 <g id="Layer_1">
  <title>Layer 1</title>
  <g>
   <path fill="#FFF3F6" d="m57.08291,22.56561l-10.4842,0l0,-6.9023l-13.2889,0c-1.9697,0 -3.5812,1.6115 -3.5812,3.5811l0,10.4835l-10.4842,0c-1.9696,0 -3.5811,1.6115 -3.5811,3.5812l0,13.2896l6.9023,0l0,10.4835c0,1.9696 1.6115,3.5811 3.5812,3.5811l16.8707,0c1.9697,0 3.5812,-1.6115 3.5812,-3.5811l0,-10.4842l10.4835,0c1.9696,0 3.5811,-1.6115 3.5811,-3.5812l0,-16.87c0.0007,-1.9697 -1.6108,-3.5812 -3.5804,-3.5812z"/>
   <path fill="#C43959" d="m37.75411,54.37821c0,0.6848 0.272,1.3415 0.7562,1.8257c0.4842,0.4842 1.1409,0.7562 1.8257,0.7562c0.6848,0 1.3415,-0.272 1.8257,-0.7562c0.4842,-0.4842 0.7562,-1.1409 0.7562,-1.8257c0,-0.6847 -0.272,-1.3414 -0.7562,-1.8256c-0.4842,-0.4842 -1.1409,-0.7562 -1.8257,-0.7562c-0.6848,0 -1.3415,0.272 -1.8257,0.7562c-0.4842,0.4842 -0.7562,1.1409 -0.7562,1.8256z"/>
   <path fill="#C43959" d="m21.81611,10.74031c0,0.6847 0.272,1.3415 0.7562,1.8257c0.4842,0.4841 1.141,0.7562 1.8257,0.7562c0.6848,0 1.3415,-0.2721 1.8257,-0.7562c0.4842,-0.4842 0.7562,-1.141 0.7562,-1.8257c0,-0.6848 -0.272,-1.3415 -0.7562,-1.8257c-0.4842,-0.4842 -1.1409,-0.7562 -1.8257,-0.7562c-0.6847,0 -1.3415,0.272 -1.8257,0.7562c-0.4842,0.4842 -0.7562,1.1409 -0.7562,1.8257z"/>
   <path stroke-width="0.5" stroke="#C43959" fill="#C43959" d="m31.05121,48.81031l22.6626,0c5.6016,0 10.159,-4.5575 10.159,-10.1591l0,-13.3025c0,-5.6016 -4.5574,-10.159 -10.159,-10.159l-6.3115,0c-1.2305,0 -2.2276,0.997 -2.2276,2.2275c0,1.2305 0.9971,2.2275 2.2276,2.2275l6.3115,0c3.1446,0 5.704,2.5594 5.704,5.704l0,13.3025c0,3.1447 -2.5594,5.704 -5.704,5.704l-22.6626,0c-1.2305,0 -2.2276,0.9971 -2.2276,2.2275c0,1.2305 0.9971,2.2276 2.2276,2.2276zm-20.765,0l6.3115,0c1.2296,0 2.2276,-0.997 2.2276,-2.2276c0,-1.2304 -0.9971,-2.2275 -2.2276,-2.2275l-6.3115,0c-3.1446,0 -5.704,-2.5593 -5.704,-5.704l0,-13.3025c0,-3.1446 2.5594,-5.704 5.704,-5.704l22.6626,0c1.2305,0 2.2276,-0.997 2.2276,-2.2275c0,-1.2305 -0.9971,-2.2275 -2.2276,-2.2275l-22.6626,0c-5.6016,0 -10.15903,4.5574 -10.15903,10.159l0,13.3025c0,5.6016 4.55743,10.1591 10.15903,10.1591z"/>
   <path stroke-width="0.5" stroke="#C43959" fill="#C43959" d="m25.40011,63.87281l13.1989,0c5.6309,0 10.2113,-4.5803 10.2105,-10.2112l0,-6.2601c0,-1.2305 -0.9971,-2.2276 -2.2275,-2.2276c-1.2305,0 -2.2276,0.9971 -2.2276,2.2276l0,6.2601c0,3.1731 -2.5823,5.7554 -5.7554,5.7554l-13.1989,0c-3.1731,0 -5.7554,-2.5823 -5.7554,-5.7554l0,-13.9472c0,-3.0252 2.4621,-5.4873 5.4873,-5.4873l13.7352,0c5.4822,0 9.9423,-4.4601 9.9423,-9.9423l0,-13.9472c0,-5.6301 -4.5804,-10.21043 -10.2105,-10.21043l-13.1989,0c-5.6301,0 -10.2104,4.58033 -10.2104,10.21043l0,6.2601c0,1.2305 0.997,2.2276 2.2275,2.2276c1.2305,0 2.2275,-0.9971 2.2275,-2.2276l0,-6.2601c0,-3.1731 2.5823,-5.7554 5.7554,-5.7554l13.1997,0c3.1731,0 5.7554,2.5823 5.7554,5.7554l0,13.9472c0,3.0252 -2.462,5.4873 -5.4872,5.4873l-13.736,0c-5.4822,0 -9.9423,4.4601 -9.9423,9.9423l0,13.948c0,5.6301 4.5803,10.2104 10.2104,10.2104z"/>
  </g>
 </g>

</svg>