<svg width="68" height="68" viewBox="0 0 68 68" fill="none" xmlns="http://www.w3.org/2000/svg">
<path d="M55.9204 12.0796L43.7409 24.2591M55.9204 12.0796C50.1068 6.26593 42.2217 3 34 3C25.7783 3 17.8932 6.26593 12.0796 12.0796M55.9204 12.0796C61.7341 17.8932 65 25.7783 65 34C65 38.071 64.1982 42.1021 62.6403 45.8632C61.0824 49.6243 58.7991 53.0418 55.9204 55.9204M43.7409 24.2591C41.1571 21.6753 37.6541 20.2222 34 20.2222C30.3459 20.2222 26.8429 21.6753 24.2591 24.2591M43.7409 24.2591C46.3247 26.8429 47.7778 30.3459 47.7778 34C47.7778 37.6541 46.3247 41.1571 43.7409 43.7409M43.7409 43.7409L55.9204 55.9204M43.7409 43.7409C41.1571 46.3247 37.6541 47.7778 34 47.7778C30.3459 47.7778 26.8429 46.3247 24.2591 43.7409M55.9204 55.9204C53.0418 58.7991 49.6243 61.0824 45.8632 62.6403C42.1021 64.1982 38.071 65 34 65C29.929 65 25.8979 64.1982 22.1368 62.6403C18.3757 61.0824 14.9582 58.7991 12.0796 55.9204M24.2591 24.2591L12.0796 12.0796M24.2591 24.2591C21.6753 26.8429 20.2222 30.3459 20.2222 34C20.2222 37.6541 21.6753 41.1571 24.2591 43.7409M12.0796 12.0796C6.26593 17.8932 3 25.7783 3 34C3 38.071 3.80184 42.1021 5.35973 45.8632C6.91763 49.6243 9.20094 53.0418 12.0796 55.9204M24.2591 43.7409L12.0796 55.9204" stroke="#C43959" stroke-width="5" stroke-linecap="round" stroke-linejoin="round"/>
</svg>
