<svg width="36" height="36" viewBox="0 0 36 36" fill="none" xmlns="http://www.w3.org/2000/svg">
<path d="M33.6306 19.6664L27.8333 4.51755C27.647 4.02888 27.1759 3.70544 26.652 3.70544H9.34463C8.8208 3.70544 8.34971 4.02888 8.16338 4.51755L2.36611 19.6664C2.31338 19.807 2.28174 19.9617 2.28174 20.1199V31.0465C2.28174 31.7461 2.84775 32.3121 3.54736 32.3121H32.4493C33.1489 32.3121 33.7149 31.7461 33.7149 31.0465V20.1199C33.7149 19.9617 33.6833 19.807 33.6306 19.6664ZM10.2165 6.23669H25.7802L30.6106 18.8578H23.2208C22.5212 18.8578 21.9552 19.4238 21.9552 20.1234C21.9552 22.3031 20.1798 24.0785 18.0001 24.0785C15.8204 24.0785 14.045 22.3031 14.045 20.1234C14.045 19.4238 13.479 18.8578 12.7794 18.8578H5.38603L10.2165 6.23669ZM31.1837 29.7808H4.81299V21.3855H11.6368C12.2274 24.3562 14.8571 26.6062 18.0001 26.6062C21.1431 26.6062 23.7728 24.3597 24.3634 21.3855H31.1837V29.7808Z" fill="#C43959"/>
<path d="M13.7179 11.264H22.2784C22.978 11.264 23.544 10.698 23.544 9.99841C23.544 9.2988 22.978 8.73279 22.2784 8.73279H13.7179C13.0183 8.73279 12.4522 9.2988 12.4522 9.99841C12.4522 10.698 13.0183 11.264 13.7179 11.264ZM11.6226 16.0418H24.3737C25.0733 16.0418 25.6394 15.4758 25.6394 14.7761C25.6394 14.0765 25.0733 13.5105 24.3737 13.5105H11.6226C10.9229 13.5105 10.3569 14.0765 10.3569 14.7761C10.3569 15.4758 10.9229 16.0418 11.6226 16.0418Z" fill="#C43959"/>
</svg>
