<svg xmlns="http://www.w3.org/2000/svg" version="1.1" xmlns:xlink="http://www.w3.org/1999/xlink" xmlns:svgjs="http://svgjs.com/svgjs" width="52" height="40"><svg width="52" height="40" viewBox="0 0 52 40" fill="none" xmlns="http://www.w3.org/2000/svg">
<g clip-path="url(#clip0_6257_2698)">
<path d="M43.9123 13.0879C43.9686 13.0316 44.0449 13 44.1245 13H51.2759C51.5432 13 51.6771 13.3231 51.4881 13.5121L31.0881 33.9121C31.0318 33.9684 30.9555 34 30.8759 34H23.7245C23.4572 34 23.3233 33.6769 23.5123 33.4879L43.9123 13.0879Z" fill="black"></path>
<path fill-rule="evenodd" clip-rule="evenodd" d="M41.1245 0C41.0449 0 40.9686 0.0316076 40.9123 0.0878677L34.0002 7H23.2771C23.2767 7 23.2763 7 23.2759 7H16.1245C16.0449 7 15.9686 7.03161 15.9123 7.08787L10.5123 12.4879C10.5122 12.488 10.5121 12.4881 10.5121 12.4881L0.512297 22.4879C0.323308 22.6769 0.457158 23 0.724429 23H7.8759C7.95546 23 8.03177 22.9684 8.08803 22.9121L18.0002 13H28.0002L23.5123 17.4879C23.3233 17.6769 23.4572 18 23.7245 18H30.8759C30.9555 18 31.0318 17.9684 31.0881 17.9121L48.4881 0.512132C48.6771 0.323143 48.5432 0 48.2759 0H41.1245ZM19.1245 22C19.0449 22 18.9686 22.0316 18.9123 22.0879L1.51229 39.4879C1.3233 39.6769 1.45715 40 1.72443 40H8.8759C8.95546 40 9.03177 39.9684 9.08803 39.9121L26.4881 22.5121C26.6771 22.3231 26.5432 22 26.2759 22H19.1245Z" fill="#C43959"></path>
</g>
<defs>
<clipPath id="SvgjsClipPath1000">
<rect width="52" height="40" fill="white"></rect>
</clipPath>
</defs>
</svg><style>@media (prefers-color-scheme: light) { :root { filter: none; } }
</style></svg>