<svg width="269" height="90" viewBox="0 0 269 90" fill="none" xmlns="http://www.w3.org/2000/svg">
<path d="M42.1143 3.15234H54.0786V59.3428H67V69.7H54.0786V88.1523H41.6357V69.7H0V57.4381L42.1143 3.15234ZM41.2768 19.5809L10.6482 59.3428H41.6357V19.5809H41.2768Z" fill="#D2D6D8"/>
<path d="M244.114 3.15234H256.079V59.3428H269V69.7H256.079V88.1523H243.636V69.7H202V57.4381L244.114 3.15234ZM243.277 19.5809L212.648 59.3428H243.636V19.5809H243.277Z" fill="#D2D6D8"/>
<mask id="mask0_6799_2729" style="mask-type:alpha" maskUnits="userSpaceOnUse" x="89" y="0" width="91" height="90">
<path d="M134.56 89.1714C159.184 89.1714 179.146 69.2097 179.146 44.5857C179.146 19.9617 159.184 0 134.56 0C109.936 0 89.9746 19.9617 89.9746 44.5857C89.9746 69.2097 109.936 89.1714 134.56 89.1714Z" fill="#CCCCCC"/>
</mask>
<g mask="url(#mask0_6799_2729)">
<path d="M134.5 89.1523C159.077 89.1523 179 69.229 179 44.6523C179 20.0757 159.077 0.152344 134.5 0.152344C109.923 0.152344 90 20.0757 90 44.6523C90 69.229 109.923 89.1523 134.5 89.1523Z" fill="#BABDBF"/>
</g>
<mask id="mask1_6799_2729" style="mask-type:alpha" maskUnits="userSpaceOnUse" x="89" y="0" width="91" height="90">
<path d="M134.56 89.1714C159.184 89.1714 179.146 69.2097 179.146 44.5857C179.146 19.9617 159.184 0 134.56 0C109.936 0 89.9746 19.9617 89.9746 44.5857C89.9746 69.2097 109.936 89.1714 134.56 89.1714Z" fill="#CCCCCC"/>
</mask>
<g mask="url(#mask1_6799_2729)">
<path d="M183.605 88.3585C194.574 88.3585 203.466 79.4665 203.466 68.4976C203.466 57.5288 194.574 48.6367 183.605 48.6367C172.636 48.6367 163.744 57.5288 163.744 68.4976C163.744 79.4665 172.636 88.3585 183.605 88.3585Z" fill="#D2D6D8"/>
<path d="M139.423 8.91664L129.043 -3.31614C128.627 -3.80739 128.936 -4.56422 129.577 -4.62891C161 -7.79887 176.65 14.5533 172.66 12.1592C168.606 9.72729 156.852 8.91664 149.556 10.5379C143.719 11.835 140.369 9.99748 139.423 8.91664Z" fill="#D2D6D8"/>
<path opacity="0.98" d="M104.283 29.5889C107.284 19.9858 114.805 16.0239 114.089 4.24383C114.058 3.72923 113.553 3.38681 113.066 3.55486C97.7481 8.83713 77.2411 26.64 82.8005 60.3936C88.7718 96.6467 129.876 102.734 143.659 97.9648C144.085 97.8173 144.272 97.3398 144.043 96.9515C141.667 92.9209 135.558 93.1787 136.709 70.9321C137.681 52.125 128.197 53.5031 115.226 50.2605C100.229 48.6392 102.256 36.0741 104.283 29.5889Z" fill="#D2D6D8"/>
<path opacity="0.55" d="M139.163 6.29703C129.433 8.90423 123.658 18.9057 126.266 28.6359C128.873 38.3661 138.874 44.1405 148.605 41.5333C158.335 38.9261 164.109 28.9246 161.502 19.1944C158.895 9.46417 148.893 3.68983 139.163 6.29703Z" fill="#D2D6D8"/>
</g>
</svg>
