<svg width="36" height="36" viewBox="0 0 36 36" fill="none" xmlns="http://www.w3.org/2000/svg">
<path d="M30 3.375H15.75C13.5 3.375 11.625 5.24999 11.625 7.49999V9.37501H6.00002C3.75002 9.37501 1.875 11.25 1.875 13.5V25.5C1.875 27.75 3.75002 29.625 6.00002 29.625H10.65L10.2 32.025C10.05 32.625 10.5 33.225 11.1 33.375C11.4 33.45 11.625 33.375 11.85 33.225L18.375 29.625H25.5C27.75 29.625 29.625 27.75 29.625 25.5V19.875H30C32.25 19.875 34.125 18 34.125 15.75V7.49999C34.125 5.24999 32.25 3.375 30 3.375ZM27.375 25.5C27.375 26.55 26.55 27.375 25.5 27.375H18C17.775 27.375 17.625 27.45 17.475 27.525L12.825 30.075L13.125 28.725C13.275 28.125 12.825 27.525 12.225 27.375H6.00002C4.95001 27.375 4.125 26.55 4.125 25.5V13.5C4.125 12.45 4.95001 11.625 6.00002 11.625H25.5C26.55 11.625 27.375 12.45 27.375 13.5V25.5ZM31.875 15.75C31.875 16.8 31.05 17.625 30 17.625H29.625V13.5C29.625 11.25 27.75 9.37501 25.5 9.37501H13.875V7.49999C13.875 6.45001 14.7 5.625 15.75 5.625H30C31.05 5.625 31.875 6.45001 31.875 7.49999V15.75Z" fill="#C43959"/>
<path d="M16.0502 12.75C14.7752 12.675 13.5752 13.125 12.6752 13.95C12.0002 14.625 11.7002 15.525 11.7002 16.5C11.7002 17.1 12.2252 17.625 12.8252 17.625C13.4252 17.625 13.9502 17.1 13.9502 16.5C13.9502 16.125 14.1002 15.825 14.3252 15.6C14.8502 15.225 15.4502 15 16.0502 15.075C16.5752 15 17.1002 15.225 17.4752 15.6C17.7002 15.975 17.7752 16.425 17.7002 16.8C17.5502 17.25 17.1752 17.475 16.5752 17.925C15.6752 18.45 14.3252 19.35 14.3252 21.375C14.3252 21.975 14.8502 22.5 15.4502 22.5C16.0502 22.5 16.5752 21.975 16.5752 21.375C16.5752 20.625 16.8752 20.4 17.7752 19.875C18.8252 19.35 19.5752 18.525 19.9502 17.4C20.4752 15.525 19.3502 13.5 17.4752 12.975C16.8752 12.825 16.5002 12.75 16.0502 12.75ZM14.2502 24.525C14.2502 24.8234 14.3687 25.1095 14.5797 25.3205C14.7907 25.5315 15.0768 25.65 15.3752 25.65C15.6736 25.65 15.9597 25.5315 16.1707 25.3205C16.3817 25.1095 16.5002 24.8234 16.5002 24.525C16.5002 24.2267 16.3817 23.9405 16.1707 23.7295C15.9597 23.5186 15.6736 23.4 15.3752 23.4C15.0768 23.4 14.7907 23.5186 14.5797 23.7295C14.3687 23.9405 14.2502 24.2267 14.2502 24.525Z" fill="#C43959"/>
</svg>
