<svg width="63" height="63" viewBox="0 0 63 63" fill="none" xmlns="http://www.w3.org/2000/svg">
<path d="M31.5002 5.7985C45.6359 5.7985 57.2013 17.3646 57.2013 31.5C57.2013 45.6353 45.6352 57.2011 31.5002 57.2011C17.3652 57.2011 5.79874 45.6353 5.79874 31.5C5.79874 17.3646 17.3649 5.7985 31.5002 5.7985ZM31.5002 0.657471C14.5368 0.657471 0.657715 14.5366 0.657715 31.5C0.657715 48.4633 14.5368 62.3425 31.5002 62.3425C48.464 62.3425 62.3427 48.4633 62.3427 31.5C62.3427 14.5366 48.4632 0.657471 31.5002 0.657471ZM23.0183 43.3223C23.7889 44.0932 25.3314 44.0932 26.1022 43.3223L44.3519 33.0421C45.1227 32.2716 45.1227 30.7295 44.3519 29.9578L26.1026 19.6776C25.3321 18.9064 23.7896 18.9064 23.0187 19.6776V43.3242V43.3223H23.0183Z" fill="#C43959"/>
</svg>
